<svg version="1.1" baseProfile="full" shape-rendering="geometricPrecision" viewBox="0 0 900 900" xmlns="http://www.w3.org/2000/svg" xmlns:xlink="http://www.w3.org/1999/xlink"><rect x="0" y="0" width="900" height="900" rx="127" fill="#FFFFFF" />
<g shape-rendering="crispEdges">
<rect x="280" y="80" width="20" height="20" fill="#000000" />
<rect x="380" y="80" width="40" height="20" fill="#000000" />
<rect x="460" y="80" width="20" height="40" fill="#000000" />
<rect x="540" y="80" width="20" height="20" fill="#000000" />
<rect x="640" y="80" width="20" height="20" fill="#000000" />
<rect x="260" y="100" width="20" height="20" fill="#000000" />
<rect x="340" y="100" width="40" height="20" fill="#000000" />
<rect x="400" y="100" width="40" height="20" fill="#000000" />
<rect x="260" y="120" width="40" height="20" fill="#000000" />
<rect x="360" y="120" width="40" height="20" fill="#000000" />
<rect x="440" y="120" width="80" height="20" fill="#000000" />
<rect x="540" y="120" width="20" height="20" fill="#000000" />
<rect x="580" y="120" width="60" height="20" fill="#000000" />
<rect x="280" y="140" width="40" height="60" fill="#000000" />
<rect x="340" y="140" width="40" height="40" fill="#000000" />
<rect x="500" y="140" width="20" height="20" fill="#000000" />
<rect x="560" y="140" width="20" height="20" fill="#000000" />
<rect x="600" y="140" width="20" height="20" fill="#000000" />
<rect x="240" y="160" width="20" height="20" fill="#000000" />
<rect x="400" y="160" width="20" height="20" fill="#000000" />
<rect x="460" y="160" width="60" height="20" fill="#000000" />
<rect x="580" y="160" width="60" height="20" fill="#000000" />
<rect x="420" y="180" width="80" height="20" fill="#000000" />
<rect x="540" y="180" width="40" height="20" fill="#000000" />
<rect x="600" y="180" width="20" height="40" fill="#000000" />
<rect x="240" y="200" width="20" height="20" fill="#000000" />
<rect x="280" y="200" width="20" height="20" fill="#000000" />
<rect x="320" y="200" width="20" height="20" fill="#000000" />
<rect x="360" y="200" width="20" height="20" fill="#000000" />
<rect x="400" y="200" width="20" height="20" fill="#000000" />
<rect x="440" y="200" width="20" height="40" fill="#000000" />
<rect x="480" y="200" width="20" height="20" fill="#000000" />
<rect x="520" y="200" width="20" height="20" fill="#000000" />
<rect x="560" y="200" width="20" height="20" fill="#000000" />
<rect x="640" y="200" width="20" height="20" fill="#000000" />
<rect x="240" y="220" width="60" height="20" fill="#000000" />
<rect x="320" y="220" width="40" height="20" fill="#000000" />
<rect x="380" y="220" width="20" height="20" fill="#000000" />
<rect x="500" y="220" width="160" height="20" fill="#000000" />
<rect x="120" y="240" width="40" height="20" fill="#000000" />
<rect x="200" y="240" width="80" height="20" fill="#000000" />
<rect x="300" y="240" width="20" height="40" fill="#000000" />
<rect x="360" y="240" width="40" height="20" fill="#000000" />
<rect x="480" y="240" width="60" height="20" fill="#000000" />
<rect x="580" y="240" width="60" height="20" fill="#000000" />
<rect x="660" y="240" width="40" height="20" fill="#000000" />
<rect x="720" y="240" width="20" height="20" fill="#000000" />
<rect x="120" y="260" width="20" height="20" fill="#000000" />
<rect x="220" y="260" width="60" height="20" fill="#000000" />
<rect x="340" y="260" width="40" height="20" fill="#000000" />
<rect x="400" y="260" width="20" height="20" fill="#000000" />
<rect x="520" y="260" width="20" height="20" fill="#000000" />
<rect x="560" y="260" width="40" height="20" fill="#000000" />
<rect x="620" y="260" width="20" height="20" fill="#000000" />
<rect x="680" y="260" width="80" height="20" fill="#000000" />
<rect x="80" y="280" width="40" height="20" fill="#000000" />
<rect x="160" y="280" width="20" height="20" fill="#000000" />
<rect x="200" y="280" width="40" height="20" fill="#000000" />
<rect x="280" y="280" width="40" height="20" fill="#000000" />
<rect x="380" y="280" width="40" height="20" fill="#000000" />
<rect x="480" y="280" width="20" height="20" fill="#000000" />
<rect x="580" y="280" width="20" height="20" fill="#000000" />
<rect x="640" y="280" width="40" height="20" fill="#000000" />
<rect x="740" y="280" width="20" height="20" fill="#000000" />
<rect x="100" y="300" width="40" height="20" fill="#000000" />
<rect x="220" y="300" width="20" height="20" fill="#000000" />
<rect x="260" y="300" width="20" height="20" fill="#000000" />
<rect x="600" y="300" width="20" height="20" fill="#000000" />
<rect x="640" y="300" width="20" height="20" fill="#000000" />
<rect x="720" y="300" width="20" height="20" fill="#000000" />
<rect x="760" y="300" width="60" height="20" fill="#000000" />
<rect x="80" y="320" width="20" height="40" fill="#000000" />
<rect x="160" y="320" width="20" height="20" fill="#000000" />
<rect x="200" y="320" width="40" height="20" fill="#000000" />
<rect x="260" y="320" width="40" height="20" fill="#000000" />
<rect x="600" y="320" width="40" height="20" fill="#000000" />
<rect x="660" y="320" width="80" height="20" fill="#000000" />
<rect x="780" y="320" width="20" height="20" fill="#000000" />
<rect x="160" y="340" width="40" height="20" fill="#000000" />
<rect x="240" y="340" width="20" height="40" fill="#000000" />
<rect x="280" y="340" width="20" height="40" fill="#000000" />
<rect x="620" y="340" width="40" height="20" fill="#000000" />
<rect x="680" y="340" width="60" height="20" fill="#000000" />
<rect x="760" y="340" width="20" height="20" fill="#000000" />
<rect x="800" y="340" width="20" height="20" fill="#000000" />
<rect x="100" y="360" width="120" height="20" fill="#000000" />
<rect x="600" y="360" width="20" height="20" fill="#000000" />
<rect x="640" y="360" width="20" height="20" fill="#000000" />
<rect x="700" y="360" width="20" height="20" fill="#000000" />
<rect x="760" y="360" width="40" height="20" fill="#000000" />
<rect x="80" y="380" width="20" height="20" fill="#000000" />
<rect x="120" y="380" width="20" height="20" fill="#000000" />
<rect x="180" y="380" width="20" height="20" fill="#000000" />
<rect x="220" y="380" width="40" height="20" fill="#000000" />
<rect x="600" y="380" width="60" height="20" fill="#000000" />
<rect x="680" y="380" width="60" height="20" fill="#000000" />
<rect x="100" y="400" width="20" height="20" fill="#000000" />
<rect x="160" y="400" width="20" height="40" fill="#000000" />
<rect x="200" y="400" width="20" height="20" fill="#000000" />
<rect x="240" y="400" width="20" height="20" fill="#000000" />
<rect x="600" y="400" width="20" height="20" fill="#000000" />
<rect x="700" y="400" width="20" height="20" fill="#000000" />
<rect x="740" y="400" width="40" height="40" fill="#000000" />
<rect x="800" y="400" width="20" height="40" fill="#000000" />
<rect x="120" y="420" width="20" height="20" fill="#000000" />
<rect x="220" y="420" width="20" height="20" fill="#000000" />
<rect x="260" y="420" width="40" height="20" fill="#000000" />
<rect x="620" y="420" width="20" height="40" fill="#000000" />
<rect x="660" y="420" width="40" height="40" fill="#000000" />
<rect x="80" y="440" width="60" height="40" fill="#000000" />
<rect x="200" y="440" width="20" height="20" fill="#000000" />
<rect x="240" y="440" width="20" height="20" fill="#000000" />
<rect x="740" y="440" width="80" height="20" fill="#000000" />
<rect x="180" y="460" width="20" height="20" fill="#000000" />
<rect x="220" y="460" width="80" height="20" fill="#000000" />
<rect x="620" y="460" width="40" height="40" fill="#000000" />
<rect x="680" y="460" width="20" height="20" fill="#000000" />
<rect x="720" y="460" width="40" height="20" fill="#000000" />
<rect x="780" y="460" width="40" height="40" fill="#000000" />
<rect x="100" y="480" width="20" height="20" fill="#000000" />
<rect x="140" y="480" width="20" height="20" fill="#000000" />
<rect x="200" y="480" width="40" height="20" fill="#000000" />
<rect x="260" y="480" width="20" height="20" fill="#000000" />
<rect x="720" y="480" width="20" height="20" fill="#000000" />
<rect x="80" y="500" width="20" height="40" fill="#000000" />
<rect x="140" y="500" width="40" height="20" fill="#000000" />
<rect x="240" y="500" width="20" height="20" fill="#000000" />
<rect x="660" y="500" width="20" height="40" fill="#000000" />
<rect x="700" y="500" width="20" height="20" fill="#000000" />
<rect x="760" y="500" width="20" height="20" fill="#000000" />
<rect x="800" y="500" width="20" height="60" fill="#000000" />
<rect x="200" y="520" width="40" height="20" fill="#000000" />
<rect x="260" y="520" width="20" height="20" fill="#000000" />
<rect x="600" y="520" width="20" height="20" fill="#000000" />
<rect x="720" y="520" width="60" height="20" fill="#000000" />
<rect x="100" y="540" width="40" height="20" fill="#000000" />
<rect x="220" y="540" width="80" height="20" fill="#000000" />
<rect x="600" y="540" width="80" height="20" fill="#000000" />
<rect x="760" y="540" width="20" height="20" fill="#000000" />
<rect x="100" y="560" width="20" height="20" fill="#000000" />
<rect x="140" y="560" width="20" height="20" fill="#000000" />
<rect x="200" y="560" width="40" height="20" fill="#000000" />
<rect x="280" y="560" width="20" height="60" fill="#000000" />
<rect x="680" y="560" width="40" height="20" fill="#000000" />
<rect x="760" y="560" width="40" height="20" fill="#000000" />
<rect x="100" y="580" width="80" height="20" fill="#000000" />
<rect x="220" y="580" width="20" height="20" fill="#000000" />
<rect x="640" y="580" width="20" height="20" fill="#000000" />
<rect x="720" y="580" width="100" height="20" fill="#000000" />
<rect x="100" y="600" width="40" height="20" fill="#000000" />
<rect x="160" y="600" width="80" height="20" fill="#000000" />
<rect x="320" y="600" width="20" height="20" fill="#000000" />
<rect x="360" y="600" width="40" height="20" fill="#000000" />
<rect x="440" y="600" width="60" height="20" fill="#000000" />
<rect x="560" y="600" width="40" height="20" fill="#000000" />
<rect x="620" y="600" width="40" height="20" fill="#000000" />
<rect x="80" y="620" width="20" height="20" fill="#000000" />
<rect x="120" y="620" width="40" height="40" fill="#000000" />
<rect x="180" y="620" width="20" height="20" fill="#000000" />
<rect x="220" y="620" width="100" height="20" fill="#000000" />
<rect x="340" y="620" width="20" height="20" fill="#000000" />
<rect x="380" y="620" width="20" height="20" fill="#000000" />
<rect x="440" y="620" width="40" height="20" fill="#000000" />
<rect x="500" y="620" width="20" height="20" fill="#000000" />
<rect x="560" y="620" width="20" height="20" fill="#000000" />
<rect x="600" y="620" width="20" height="20" fill="#000000" />
<rect x="640" y="620" width="40" height="20" fill="#000000" />
<rect x="760" y="620" width="20" height="20" fill="#000000" />
<rect x="200" y="640" width="20" height="20" fill="#000000" />
<rect x="240" y="640" width="20" height="60" fill="#000000" />
<rect x="380" y="640" width="80" height="20" fill="#000000" />
<rect x="480" y="640" width="120" height="20" fill="#000000" />
<rect x="620" y="640" width="120" height="20" fill="#000000" />
<rect x="780" y="640" width="20" height="20" fill="#000000" />
<rect x="300" y="660" width="40" height="20" fill="#000000" />
<rect x="400" y="660" width="80" height="20" fill="#000000" />
<rect x="600" y="660" width="60" height="20" fill="#000000" />
<rect x="720" y="660" width="60" height="20" fill="#000000" />
<rect x="800" y="660" width="20" height="40" fill="#000000" />
<rect x="380" y="680" width="20" height="20" fill="#000000" />
<rect x="420" y="680" width="20" height="20" fill="#000000" />
<rect x="480" y="680" width="20" height="20" fill="#000000" />
<rect x="520" y="680" width="20" height="20" fill="#000000" />
<rect x="580" y="680" width="80" height="20" fill="#000000" />
<rect x="680" y="680" width="20" height="20" fill="#000000" />
<rect x="720" y="680" width="40" height="40" fill="#000000" />
<rect x="260" y="700" width="40" height="20" fill="#000000" />
<rect x="320" y="700" width="40" height="20" fill="#000000" />
<rect x="460" y="700" width="20" height="20" fill="#000000" />
<rect x="500" y="700" width="20" height="20" fill="#000000" />
<rect x="540" y="700" width="20" height="20" fill="#000000" />
<rect x="620" y="700" width="40" height="20" fill="#000000" />
<rect x="780" y="700" width="40" height="20" fill="#000000" />
<rect x="260" y="720" width="20" height="20" fill="#000000" />
<rect x="300" y="720" width="40" height="20" fill="#000000" />
<rect x="360" y="720" width="80" height="20" fill="#000000" />
<rect x="480" y="720" width="20" height="20" fill="#000000" />
<rect x="600" y="720" width="20" height="20" fill="#000000" />
<rect x="640" y="720" width="120" height="20" fill="#000000" />
<rect x="240" y="740" width="20" height="40" fill="#000000" />
<rect x="300" y="740" width="120" height="20" fill="#000000" />
<rect x="440" y="740" width="100" height="20" fill="#000000" />
<rect x="580" y="740" width="80" height="20" fill="#000000" />
<rect x="680" y="740" width="20" height="20" fill="#000000" />
<rect x="720" y="740" width="100" height="20" fill="#000000" />
<rect x="300" y="760" width="20" height="20" fill="#000000" />
<rect x="340" y="760" width="40" height="20" fill="#000000" />
<rect x="400" y="760" width="20" height="20" fill="#000000" />
<rect x="460" y="760" width="20" height="40" fill="#000000" />
<rect x="500" y="760" width="40" height="20" fill="#000000" />
<rect x="580" y="760" width="20" height="20" fill="#000000" />
<rect x="680" y="760" width="80" height="20" fill="#000000" />
<rect x="780" y="760" width="20" height="20" fill="#000000" />
<rect x="500" y="780" width="20" height="20" fill="#000000" />
<rect x="540" y="780" width="40" height="40" fill="#000000" />
<rect x="700" y="780" width="20" height="20" fill="#000000" />
<rect x="740" y="780" width="40" height="20" fill="#000000" />
<rect x="280" y="800" width="40" height="20" fill="#000000" />
<rect x="600" y="800" width="40" height="20" fill="#000000" />
<rect x="660" y="800" width="20" height="20" fill="#000000" />
<rect x="760" y="800" width="60" height="20" fill="#000000" />
</g>
<svg width="260" height="260" viewBox="0 0 279 279" fill="none" xmlns="http://www.w3.org/2000/svg" x="320" y="320" shape-rendering="geometricPrecision"><path fill-rule="evenodd" clip-rule="evenodd" d="M279 88.3732C279 84.9904 279 81.6075 278.979 78.2595C278.962 75.3998 278.93 72.5749 278.853 69.7151C278.774 63.4985 278.228 57.2967 277.221 51.1616C276.17 45.0235 274.21 39.076 271.408 33.5149C265.707 22.3611 256.63 13.2925 245.47 7.60275C239.919 4.78592 233.974 2.82246 227.837 1.77863C221.698 0.780059 215.495 0.23222 209.276 0.1395C206.437 0.06975 203.596 0.034875 200.752 0.034875C197.38 0 194.004 0 190.638 0H88.3615C84.989 0 81.613 0 78.2475 0.034875C75.404 0.034875 72.5616 0.06975 69.7204 0.1395C63.5028 0.232377 57.3004 0.780216 51.1629 1.77863C45.0248 2.823 39.0791 4.78642 33.5262 7.60275C22.3688 13.2941 13.293 22.3624 7.59248 33.5149C4.78801 39.0754 2.82852 45.0231 1.77867 51.1616C0.770104 57.2964 0.224501 63.4984 0.146479 69.7151C0.0697517 72.5749 0.0383635 75.3998 0.0209255 78.2595C0 81.6075 0 84.9904 0 88.3732V190.627C0 194.01 0 197.392 0.0209255 200.74C0.0209255 203.6 0.0697517 206.425 0.146479 209.285C0.224501 215.502 0.770104 221.704 1.77867 227.838C2.82852 233.977 4.78801 239.925 7.59248 245.485C13.293 256.638 22.3688 265.706 33.5262 271.397C39.0791 274.214 45.0248 276.177 51.1629 277.221C57.2983 278.237 63.5019 278.785 69.7204 278.861C72.5616 278.93 75.404 278.965 78.2475 278.965C81.62 279 84.996 279 88.3615 279H190.631C194.004 279 197.38 279 200.745 278.965C203.589 278.965 206.43 278.93 209.269 278.861C215.489 278.785 221.694 278.237 227.83 277.221C233.967 276.178 239.912 274.214 245.463 271.397C256.623 265.708 265.7 256.639 271.401 245.485C274.203 239.924 276.163 233.977 277.214 227.838C278.221 221.703 278.767 215.501 278.847 209.285C278.923 206.425 278.955 203.6 278.972 200.74C278.993 197.392 278.993 194.01 278.993 190.627V88.3732H279Z" fill="#FF5B24" /><path d="M169.477 76.4971C158.841 76.4971 149.724 84.6008 149.724 96.25C149.724 107.899 158.841 116.003 169.477 116.003C180.113 116.003 189.23 107.899 189.23 96.25C189.23 84.6008 180.113 76.4971 169.477 76.4971ZM143.646 206.664C174.795 206.664 199.107 191.469 216.58 168.171C221.645 161.587 223.418 156.775 223.418 152.47C223.418 145.126 218.353 139.048 210.756 139.048C205.691 139.048 199.866 141.834 193.535 150.191C182.139 165.132 168.211 177.541 144.659 177.541C118.575 177.541 99.0757 161.84 85.1473 141.58C79.8292 133.73 74.5111 130.691 69.193 130.691C61.5958 130.691 56.0244 136.516 56.0244 144.873C56.0244 148.418 57.0374 152.217 61.5958 159.054C80.589 187.924 109.712 206.664 143.646 206.664Z" fill="#ffffff" /></svg>
<svg width="140" height="140" viewBox="0 0 217 217" fill="none" xmlns="http://www.w3.org/2000/svg" x="80" y="80" shape-rendering="geometricPrecision"><path d="M217 0V142.914C217 161.34 217 217 217 217C217 217 165.918 217 143.763 217H0L0.0434 74.086C0.0434 33.2444 32.8972 0 73.3026 0H217ZM184.45 32.55H73.3026C50.8561 32.55 32.5934 51.1816 32.5934 74.0946L32.5587 184.45H184.45V32.55Z" fill="#000000" /><path d="M155.057 62.0149V155H62.0567L62.0828 87.6968C62.0818 73.5301 73.4111 62 87.3202 62H129.661C134.016 62 140.364 62 145.63 62.0149C150.884 62.0149 155.057 62.0149 155.057 62.0149Z" fill="#000000" /></svg>
<svg width="140" height="140" viewBox="0 0 217 217" fill="none" xmlns="http://www.w3.org/2000/svg" x="680" y="80" shape-rendering="geometricPrecision"><path d="M217 0V142.914C217 161.34 217 217 217 217C217 217 165.918 217 143.763 217H0L0.0434 74.086C0.0434 33.2444 32.8972 0 73.3026 0H217ZM184.45 32.55H73.3026C50.8561 32.55 32.5934 51.1816 32.5934 74.0946L32.5587 184.45H184.45V32.55Z" fill="#000000" transform="rotate(90, 108.5, 108.5)" /><path d="M155.057 62.0149V155H62.0567L62.0828 87.6968C62.0818 73.5301 73.4111 62 87.3202 62H129.661C134.016 62 140.364 62 145.63 62.0149C150.884 62.0149 155.057 62.0149 155.057 62.0149Z" fill="#000000" transform="rotate(90, 108.5, 108.5)" /></svg>
<svg width="140" height="140" viewBox="0 0 217 217" fill="none" xmlns="http://www.w3.org/2000/svg" x="80" y="680" shape-rendering="geometricPrecision"><path d="M217 0V142.914C217 161.34 217 217 217 217C217 217 165.918 217 143.763 217H0L0.0434 74.086C0.0434 33.2444 32.8972 0 73.3026 0H217ZM184.45 32.55H73.3026C50.8561 32.55 32.5934 51.1816 32.5934 74.0946L32.5587 184.45H184.45V32.55Z" fill="#000000" transform="rotate(270, 108.5, 108.5)" /><path d="M155.057 62.0149V155H62.0567L62.0828 87.6968C62.0818 73.5301 73.4111 62 87.3202 62H129.661C134.016 62 140.364 62 145.63 62.0149C150.884 62.0149 155.057 62.0149 155.057 62.0149Z" fill="#000000" transform="rotate(270, 108.5, 108.5)" /></svg>
</svg>