<?xml version="1.0" encoding="utf-8"?><!DOCTYPE svg PUBLIC "-//W3C//DTD SVG 1.1//EN" "http://www.w3.org/Graphics/SVG/1.1/DTD/svg11.dtd"><svg version="1.1" id="Layer_1" xmlns="http://www.w3.org/2000/svg" xmlns:xlink="http://www.w3.org/1999/xlink" x="0px" y="0px" width="123px" height="30px" viewBox="0 0 123 30" enable-background="new 0 0 123 30" xml:space="preserve"><g><defs><polygon id="SVGID_9_" points="-296,-74 -296,-62 -286,-68"/></defs><clipPath id="SVGID_2_"><use xlink:href="#SVGID_9_" overflow="visible"/></clipPath><g clip-path="url(#SVGID_2_)"><defs><rect id="SVGID_11_" x="-925" y="-228" width="942" height="563"/></defs><clipPath id="SVGID_4_"><use xlink:href="#SVGID_11_" overflow="visible"/></clipPath></g></g><g><defs><polygon id="SVGID_13_" points="-294,-10 -294,2 -284,-4"/></defs><clipPath id="SVGID_6_"><use xlink:href="#SVGID_13_" overflow="visible"/></clipPath><g clip-path="url(#SVGID_6_)"><defs><rect id="SVGID_15_" x="-923" y="-164" width="942" height="563"/></defs><clipPath id="SVGID_8_"><use xlink:href="#SVGID_15_" overflow="visible"/></clipPath></g></g><path fill="#F47023" d="M123,27c0,1.657-1.343,3-3,3H3c-1.657,0-3-1.343-3-3V3c0-1.657,1.343-3,3-3h117c1.657,0,3,1.343,3,3V27z"/><path fill="#FFFFFF" d="M23.463,16.375v3.576H22V11h2.528c1.154,0,2.01,0.218,2.565,0.65c0.555,0.432,0.832,1.086,0.832,1.958 c0,1.114-0.579,1.908-1.738,2.382l2.528,3.961H27.05l-2.142-3.576H23.463z M23.463,15.163h1.017c0.682,0,1.175-0.126,1.48-0.379 c0.307-0.253,0.459-0.629,0.459-1.126c0-0.507-0.164-0.87-0.495-1.09c-0.331-0.221-0.828-0.331-1.493-0.331h-0.968V15.163z"/><path fill="#FFFFFF" d="M34.836,19.771l-0.203-0.888h-0.072c-0.201,0.313-0.485,0.561-0.854,0.74c-0.37,0.18-0.79,0.27-1.265,0.27 c-0.82,0-1.432-0.204-1.836-0.612S30,18.255,30,17.427V13h1.449v4.176c0,0.519,0.107,0.905,0.319,1.165 c0.212,0.259,0.545,0.39,0.998,0.39c0.604,0,1.047-0.182,1.332-0.543c0.283-0.361,0.424-0.965,0.424-1.814V13h1.445v6.771H34.836z"/><path fill="#FFFFFF" d="M43.957,20h-1.445v-4.163c0-0.522-0.105-0.912-0.315-1.169c-0.21-0.258-0.543-0.386-1-0.386 c-0.608,0-1.054,0.18-1.335,0.539c-0.282,0.358-0.423,0.96-0.423,1.806V20H38v-6.771h1.127l0.201,0.888h0.074 c0.203-0.321,0.493-0.57,0.868-0.746c0.376-0.176,0.792-0.264,1.249-0.264c1.625,0,2.438,0.826,2.438,2.479V20z"/><path fill="#FFFFFF" d="M48.385,11.436c0-0.257,0.069-0.455,0.211-0.594c0.14-0.139,0.342-0.208,0.602-0.208 c0.254,0,0.45,0.069,0.592,0.208S50,11.179,50,11.436c0,0.244-0.069,0.438-0.211,0.577c-0.142,0.142-0.338,0.212-0.592,0.212 c-0.26,0-0.462-0.07-0.602-0.212C48.454,11.873,48.385,11.68,48.385,11.436z M49.908,20H48.47v-6.771h1.438V20z"/><path fill="#FFFFFF" d="M57.955,19.894h-1.444V15.73c0-0.522-0.104-0.912-0.314-1.169c-0.21-0.258-0.544-0.386-1.001-0.386 c-0.608,0-1.054,0.18-1.335,0.539c-0.282,0.358-0.422,0.96-0.422,1.806v3.373H52v-6.771h1.126l0.201,0.888h0.074 c0.203-0.321,0.494-0.57,0.869-0.746C54.646,13.088,55.062,13,55.519,13c1.625,0,2.437,0.826,2.437,2.479V19.894z"/><path fill="#FFFFFF" d="M69.461,13.715c0,0.935-0.307,1.651-0.919,2.149c-0.611,0.498-1.482,0.747-2.613,0.747h-0.93v3.349h-1.463 v-8.951h2.576c1.118,0,1.956,0.229,2.513,0.687S69.461,12.825,69.461,13.715z M64.999,15.38h0.776c0.751,0,1.302-0.13,1.653-0.392 c0.351-0.261,0.526-0.669,0.526-1.224c0-0.515-0.157-0.897-0.471-1.151c-0.315-0.253-0.805-0.379-1.47-0.379h-1.016V15.38z"/><path fill="#FFFFFF" d="M77.101,16.562c0,1.107-0.283,1.97-0.851,2.59c-0.567,0.621-1.357,0.931-2.369,0.931 c-0.633,0-1.191-0.144-1.677-0.429c-0.486-0.286-0.859-0.695-1.121-1.23c-0.262-0.534-0.392-1.155-0.392-1.861 c0-1.098,0.281-1.954,0.845-2.57c0.562-0.617,1.356-0.925,2.381-0.925c0.979,0,1.756,0.314,2.327,0.944 C76.815,14.642,77.101,15.493,77.101,16.562z M72.173,16.562c0,1.564,0.578,2.345,1.732,2.345c1.143,0,1.714-0.78,1.714-2.345 c0-1.547-0.575-2.319-1.727-2.319c-0.604,0-1.041,0.199-1.312,0.6S72.173,15.815,72.173,16.562z"/><path fill="#FFFFFF" d="M83.302,18.032c0,0.66-0.24,1.166-0.723,1.52c-0.481,0.353-1.17,0.53-2.068,0.53 c-0.901,0-1.626-0.137-2.173-0.409V18.43c0.796,0.367,1.536,0.551,2.222,0.551c0.886,0,1.329-0.268,1.329-0.803 c0-0.171-0.05-0.313-0.147-0.429c-0.099-0.114-0.26-0.231-0.483-0.354c-0.226-0.122-0.537-0.261-0.937-0.416 c-0.78-0.302-1.308-0.604-1.583-0.906s-0.413-0.694-0.413-1.176c0-0.579,0.233-1.029,0.7-1.351c0.469-0.32,1.104-0.479,1.907-0.479 c0.796,0,1.549,0.161,2.259,0.483l-0.465,1.084c-0.73-0.302-1.345-0.453-1.843-0.453c-0.759,0-1.139,0.217-1.139,0.648 c0,0.213,0.099,0.393,0.298,0.539c0.197,0.147,0.629,0.349,1.294,0.606c0.56,0.216,0.965,0.413,1.218,0.593 c0.254,0.18,0.441,0.387,0.563,0.621C83.241,17.424,83.302,17.705,83.302,18.032z"/><path fill="#FFFFFF" d="M87.379,18.919c0.352,0,0.702-0.055,1.054-0.166v1.084c-0.159,0.069-0.364,0.127-0.615,0.174 c-0.252,0.047-0.512,0.071-0.781,0.071c-1.363,0-2.044-0.719-2.044-2.155v-3.648h-0.925v-0.637l0.992-0.525l0.489-1.433h0.888v1.505 h1.929v1.09h-1.929v3.624c0,0.348,0.087,0.603,0.261,0.768C86.869,18.835,87.098,18.919,87.379,18.919z"/><path fill="#FFFFFF" d="M95.49,19.96h-1.445v-4.175c0-0.519-0.098-0.906-0.293-1.162c-0.196-0.255-0.503-0.381-0.918-0.381 c-0.556,0-0.963,0.18-1.223,0.541c-0.258,0.361-0.388,0.962-0.388,1.804v3.373h-1.439v-6.771h1.127l0.202,0.888h0.073 c0.188-0.321,0.461-0.57,0.817-0.746c0.357-0.176,0.75-0.264,1.179-0.264c1.04,0,1.73,0.355,2.068,1.065h0.098 c0.201-0.335,0.482-0.596,0.846-0.784c0.363-0.188,0.779-0.281,1.248-0.281c0.809,0,1.397,0.204,1.767,0.612 c0.37,0.408,0.555,1.03,0.555,1.867v4.414h-1.439v-4.175c0-0.519-0.099-0.906-0.296-1.162c-0.198-0.255-0.506-0.381-0.922-0.381 c-0.559,0-0.969,0.174-1.228,0.522c-0.26,0.35-0.389,0.885-0.389,1.607V19.96z"/><path fill="#FFFFFF" d="M106.007,19.96l-0.287-0.943h-0.049c-0.327,0.413-0.656,0.692-0.985,0.842 c-0.331,0.147-0.755,0.224-1.273,0.224c-0.665,0-1.185-0.18-1.559-0.539c-0.373-0.359-0.56-0.866-0.56-1.524 c0-0.697,0.259-1.224,0.777-1.579s1.308-0.549,2.368-0.581l1.17-0.037V15.46c0-0.432-0.101-0.757-0.303-0.971 c-0.203-0.215-0.516-0.321-0.94-0.321c-0.346,0-0.679,0.052-0.998,0.153c-0.317,0.103-0.623,0.223-0.918,0.361l-0.465-1.027 c0.367-0.193,0.77-0.34,1.205-0.439c0.438-0.1,0.85-0.149,1.237-0.149c0.861,0,1.512,0.188,1.949,0.563 c0.439,0.375,0.659,0.965,0.659,1.77v4.561H106.007z M103.865,18.98c0.522,0,0.941-0.147,1.258-0.439 c0.315-0.291,0.475-0.7,0.475-1.226v-0.588l-0.87,0.037c-0.677,0.024-1.169,0.136-1.479,0.338c-0.308,0.203-0.462,0.513-0.462,0.93 c0,0.301,0.09,0.533,0.27,0.699C103.236,18.896,103.506,18.98,103.865,18.98z"/><path fill="#FFFFFF" d="M115,19.96h-1.445v-4.163c0-0.522-0.104-0.912-0.314-1.169c-0.211-0.258-0.544-0.386-1.001-0.386 c-0.608,0-1.054,0.18-1.335,0.539c-0.281,0.358-0.423,0.96-0.423,1.806v3.373h-1.438v-6.771h1.126l0.202,0.888h0.073 c0.204-0.321,0.493-0.57,0.87-0.746c0.375-0.176,0.791-0.264,1.248-0.264c1.624,0,2.437,0.826,2.437,2.479V19.96z"/><g><defs><polygon id="SVGID_21_" points="8,10 8,21 17,15.6"/></defs><clipPath id="SVGID_10_"><use xlink:href="#SVGID_21_" overflow="visible"/></clipPath><g clip-path="url(#SVGID_10_)"><defs><rect id="SVGID_23_" x="-558.1" y="-128.4" width="847.8" height="506.7"/></defs><clipPath id="SVGID_12_"><use xlink:href="#SVGID_23_" overflow="visible"/></clipPath><rect x="3.5" y="5.7" clip-path="url(#SVGID_12_)" fill="#FFFFFF" width="18" height="19.8"/></g></g></svg>
